<svg width="142" height="142" viewBox="0 0 142 142" fill="none" xmlns="http://www.w3.org/3000/svg">
<rect x="71.1621" y="0.289505" width="100" height="100" rx="4" transform="rotate(45.1313 71.1621 0.289505)" fill="black"/>
<path fill-rule="evenodd" clip-rule="evenodd" d="M88.7181 53.3629L73.903 38.4797C72.3445 36.914 69.8118 36.9082 68.2461 38.4667L53.3629 53.2819L38.4797 68.097C36.914 69.6555 36.9082 72.1882 38.4667 73.7539L53.2819 88.6371L68.097 103.52C69.6555 105.086 72.1882 105.092 73.7539 103.533L88.6371 88.7181L103.52 73.903C105.086 72.3445 105.092 69.8118 103.533 68.2461L88.7181 53.3629ZM88.7181 53.3629C98.4588 63.1484 98.4226 78.9774 88.6371 88.7181C78.8516 98.4588 63.0226 98.4226 53.2819 88.6371C43.5412 78.8516 43.5774 63.0226 53.3629 53.2819C63.1484 43.5412 78.9774 43.5774 88.7181 53.3629Z" fill="white"/>
<path fill-rule="evenodd" clip-rule="evenodd" d="M53.6589 78.3849C52.6848 77.4063 52.6885 75.8234 53.667 74.8494L66.4241 62.1507C67.4026 61.1766 68.9855 61.1802 69.9596 62.1588C70.9337 63.1373 70.93 64.7202 69.9515 65.6943L57.1944 78.393C56.2159 79.3671 54.633 79.3634 53.6589 78.3849Z" fill="white"/>
<path fill-rule="evenodd" clip-rule="evenodd" d="M62.8497 79.1131C61.8756 78.1345 61.8792 76.5516 62.8578 75.5775L75.6148 62.8788C76.5934 61.9048 78.1763 61.9084 79.1504 62.8869C80.1244 63.8655 80.1208 65.4484 79.1423 66.4225L66.3852 79.1212C65.4066 80.0952 63.8237 80.0916 62.8497 79.1131Z" fill="white"/>
<path fill-rule="evenodd" clip-rule="evenodd" d="M72.0404 79.8412C71.0663 78.8627 71.07 77.2798 72.0485 76.3057L84.8056 63.607C85.7841 62.6329 87.367 62.6366 88.3411 63.6151C89.3152 64.5937 89.3115 66.1766 88.333 67.1506L75.5759 79.8493C74.5974 80.8234 73.0145 80.8198 72.0404 79.8412Z" fill="white"/>
</svg>
