<svg width="15" height="5" viewBox="0 0 15 5" fill="none" xmlns="http://www.w3.org/2000/svg">
<path d="M2.03125 4.14062C1.59613 4.14062 1.17883 3.96777 0.871153 3.6601C0.563476 3.35242 0.390625 2.93512 0.390625 2.5C0.390625 2.06488 0.563476 1.64758 0.871153 1.3399C1.17883 1.03223 1.59613 0.859375 2.03125 0.859375C2.46637 0.859375 2.88367 1.03223 3.19135 1.3399C3.49902 1.64758 3.67188 2.06488 3.67188 2.5C3.67188 2.93512 3.49902 3.35242 3.19135 3.6601C2.88367 3.96777 2.46637 4.14062 2.03125 4.14062ZM7.5 4.14062C7.06488 4.14062 6.64758 3.96777 6.3399 3.6601C6.03223 3.35242 5.85938 2.93512 5.85938 2.5C5.85938 2.06488 6.03223 1.64758 6.3399 1.3399C6.64758 1.03223 7.06488 0.859375 7.5 0.859375C7.93512 0.859375 8.35242 1.03223 8.6601 1.3399C8.96777 1.64758 9.14062 2.06488 9.14062 2.5C9.14062 2.93512 8.96777 3.35242 8.6601 3.6601C8.35242 3.96777 7.93512 4.14062 7.5 4.14062ZM12.9688 4.14062C12.5336 4.14062 12.1163 3.96777 11.8087 3.6601C11.501 3.35242 11.3281 2.93512 11.3281 2.5C11.3281 2.06488 11.501 1.64758 11.8087 1.3399C12.1163 1.03223 12.5336 0.859375 12.9688 0.859375C13.4039 0.859375 13.8212 1.03223 14.1288 1.3399C14.4365 1.64758 14.6094 2.06488 14.6094 2.5C14.6094 2.93512 14.4365 3.35242 14.1288 3.6601C13.8212 3.96777 13.4039 4.14062 12.9688 4.14062Z" fill="white"/>
</svg>
